<svg xmlns="http://www.w3.org/2000/svg" xmlns:xlink="http://www.w3.org/1999/xlink" width="20" height="20" fill="none" xmlns:v="https://vecta.io/nano"><g filter="url(#B)"><mask id="A" maskUnits="userSpaceOnUse" x="2" y="1" width="16" height="16" fill="#000"><path fill="#fff" d="M2 1h16v16H2z"/><use xlink:href="#C" fill-rule="evenodd"/></mask><use xlink:href="#C" fill-rule="evenodd" fill="#fff"/><path d="M8.03 16l-.608.794.27.206h.34v-1zm-3-3l-.857.515L5.03 13zm-2-4l.97.243L3.03 9zm2-.588l-.707.707.707-.707zm1.827 2.212L6.4 9.73l.447.894zm-.4-4.164l.94-.342-.94.342zm0-4.46V1v1zM8.53 8v1-1zm.54-1h-1 1zm.105-.45l-.87-.494.87.494zm1.356-.48v-1 1zm1 1.93V7v1zm.5-1h-1 1zm1.464-.93v-1 1zM14.53 8v1-1zm.5-1V6v1zm1 2.5h-1 1zm-2 5.5l-.8-.6-.2.267V15h1zm-.536 1v-1 1zm-1.464-1v-1 1zm-1 1v1h.7l.234-.67-.944-.33zm3-2v1h1v-1h-1zm0-4h1V9h-1v1zm-1 0V9h-1v1h1zm0 4h-1v1h1v-1zm-5 2l.608-.794-.02-.015-.066-.052-.25-.2-.81-.694c-.65-.585-1.298-1.25-1.604-1.76l-1.715 1.03c.474.79 1.326 1.627 1.98 2.217l.885.758.275.22.077.06.02.016c.01.007.01.007.617-.787zm-2.143-3.514l-.713-1.08-.683-1.026c-.203-.33-.346-.607-.426-.832-.083-.235-.062-.316-.065-.304l-1.94-.485c-.133.532-.025 1.05.12 1.458.15.42.375.834.607 1.21l.74 1.114.644.975 1.715-1.03zM4 9.243c.068-.273.176-.28.13-.265-.016.005-.02-.001 0 .006a.51.51 0 0 1 .193.135l1.414-1.414c-.588-.588-1.394-.886-2.198-.637-.785.243-1.287.922-1.48 1.7L4 9.243zm.323-.124c.277.277.512.726.862 1.306.143.236.338.55.57.782.12.12.31.28.576.374a1.24 1.24 0 0 0 .972-.062L6.4 9.73a.76.76 0 0 1 .58-.038c.134.047.193.113.178.098-.036-.036-.118-.146-.27-.397-.24-.396-.657-1.184-1.16-1.687L4.323 9.12zm2.982 2.4c.376-.188.553-.513.635-.718.087-.217.126-.444.145-.638a6.3 6.3 0 0 0-.039-1.298c-.106-.9-.35-1.952-.64-2.746l-1.88.683c.232.638.443 1.537.532 2.296.045.383.053.68.035.87-.01.097-.022.117-.01.1.006-.015.082-.205.327-.328l.894 1.79zm.102-5.4c-.232-.64-.476-1.663-.536-2.497-.03-.43-.005-.7.034-.842.018-.062.017-.012-.058.062-.1.1-.245.16-.38.16V1c-.4 0-.76.154-1.032.425-.247.246-.376.543-.448.788-.142.48-.147 1.048-.11 1.553.075 1.038.363 2.243.65 3.036l1.88-.683zM6.467 3c.1 0 .076.02.025-.018-.034-.025-.007-.025.055.114.065.145.127.344.216.656l.32 1.065 1.897-.632-.293-.982-.313-.923c-.133-.3-.337-.642-.686-.902C7.32 1.105 6.9 1 6.467 1v2zm.614 1.816c.195.585.226 1.31.24 2.016l.044.954c.016.13.05.347.15.557.11.227.417.656 1.015.656V7c.5 0 .735.367.788.478.045.095.042.144.03.063-.018-.145-.022-.372-.03-.75-.013-.67-.037-1.693-.342-2.61l-1.897.632zM8.53 9a1.46 1.46 0 0 0 .778-.216c.252-.157.42-.373.53-.586.198-.387.233-.835.233-1.198h-2a1.77 1.77 0 0 1-.017.271c-.01.06-.016.055.003.018a.54.54 0 0 1 .195-.203c.116-.072.224-.087.28-.087v2zm1.54-2c0-.024.002-.028 0-.018s-.01.034-.025.062l-1.74-.988c-.175.308-.236.637-.236.944h2zm-.025.044c-.054.096-.12.106-.062.085.076-.027.242-.06.548-.06v-2c-.74 0-1.738.13-2.225.986l1.74.988zm.486.026a.45.45 0 0 1-.232-.075.41.41 0 0 1-.136-.135c0 0 .03.07.062.306l.103.748c.028.127.087.356.235.57A1.17 1.17 0 0 0 11.53 9V7a.83.83 0 0 1 .678.35c.076.1.083.188.07.134-.028-.13-.028-.236-.073-.58-.033-.248-.096-.658-.3-1.02a1.6 1.6 0 0 0-.531-.573c-.26-.166-.552-.24-.846-.24v2zm1 1.93c.056 0 .28.007.463-.025a1.23 1.23 0 0 0 .461-.179c.184-.12.314-.278.4-.443.14-.27.16-.562.167-.703l.01-.65h-2l-.006.54-.004.055c.001-.007.013-.076.06-.167.055-.106.147-.22.282-.308a.77.77 0 0 1 .283-.115c.043-.008.064-.006.03-.005h-.146v2zm1.5-2c0-.095.005-.155.01-.19s.008-.027-.005.003-.046.09-.102.144-.114.09-.155.106-.054.016-.034.013.06-.007.13-.01l.26-.001.36.003v-2c-.2 0-.48-.007-.683 0-.208.007-.516.028-.816.155-.355.15-.633.42-.794.793-.14.32-.17.67-.17.983h2zm.464.07a.44.44 0 0 1-.224-.072c-.086-.054-.125-.115-.134-.13s.004.004.02.066a2.25 2.25 0 0 1 .045.243l.115.755c.03.13.096.36.253.575A1.18 1.18 0 0 0 14.53 9V7a.82.82 0 0 1 .655.328c.08.11.09.188.077.137-.03-.123-.03-.23-.08-.572-.035-.247-.103-.657-.31-1.018-.112-.196-.28-.408-.534-.568-.26-.164-.55-.238-.845-.238v2zM14.53 9a1.24 1.24 0 0 0 .749-.242c.242-.18.363-.413.424-.59a1.61 1.61 0 0 0 .08-.422l.005-.257v-.12c.001-.023.002.02-.02.09-.024.076-.09.236-.262.37A.78.78 0 0 1 15.03 8V6a1.22 1.22 0 0 0-.763.258c-.24.19-.352.427-.406.597a1.64 1.64 0 0 0-.07.409l-.003.246-.001.1c-.001.02-.001-.027.025-.102.028-.082.1-.236.27-.363A.76.76 0 0 1 14.53 7v2zm.5-1c.086 0 .042.01-.034-.023-.104-.046-.15-.115-.15-.114.013.023.065.134.1.415.044.275.074.667.074 1.222h2c0-1.18-.115-2.04-.442-2.62a1.68 1.68 0 0 0-.79-.735c-.31-.136-.604-.145-.77-.145v2zm0 1.5l.032 1.428.012.75a.73.73 0 0 1-.056.271c-.037.086-.11.214-.29.452l1.6 1.2c.212-.283.396-.56.526-.86.138-.32.196-.624.215-.94.017-.287.003-.612-.01-.95l-.03-1.35h-2zm-.3 2.9l-1.492 1.99c-.008.01-.008.01.792.61l.8.6 1.5-2-1.6-1.2zm-.7 2.6c-1 0-1 0-1-.001l-.004.068a1.08 1.08 0 0 1-.028.174c-.017.063-.022.037.027-.024a.57.57 0 0 1 .176-.143.63.63 0 0 1 .293-.074v2c.497 0 .866-.25 1.09-.53.2-.248.296-.525.346-.712.053-.2.077-.386.09-.514l.01-.164v-.052-.024c0-.005 0-.005-1-.005zm-.536 0c.2 0 .304.098.28.078a2.61 2.61 0 0 1-.214-.235c-.104-.12-.28-.323-.504-.49-.24-.18-.585-.354-1.025-.354v2c-.115 0-.18-.05-.17-.042.028.02.076.068.2.198.084.096.25.296.436.453.2.168.54.39 1.007.39v-2zm-1.464-1c-.86 0-1.37.64-1.573.94-.124.184-.213.36-.272.487l-.07.162-.02.052-.01.024c-.002.005-.002.005.942.335l.944.33.03-.07a1.44 1.44 0 0 1 .111-.201c.022-.032.042-.058.06-.077l.02-.02c.006-.006-.056.04-.164.04v-2zm-1 1h-3v2h3v-2zm4-1v-4h-2v4h2zm-1-5h-1v2h1V9zm-2 1v4h2v-4h-2zm1 5h1v-2h-1v2zm-3-2c0 .317.107.705.23.99.065.153.163.348.306.524.115.14.437.485.965.485v-2a.82.82 0 0 1 .44.126c.083.053.128.106.142.123.025.03.015.027-.012-.037-.023-.054-.044-.12-.058-.178l-.012-.06c-.002-.015.001-.004.001.027h-2zm1.5 2c.52 0 .84-.33.965-.48.147-.178.246-.376.31-.53.122-.292.224-.677.224-1h-2c0-.04.004-.028-.012.042a1.17 1.17 0 0 1-.056.175c-.026.06-.035.062-.007.028.015-.02.062-.072.146-.124s.237-.12.43-.12v2zm1.5-2v-2h-2v2h2zm0-2c0-.317-.107-.705-.23-.99a2.16 2.16 0 0 0-.306-.524C12.38 9.344 12.06 9 11.53 9v2a.82.82 0 0 1-.44-.126c-.083-.053-.128-.106-.142-.123-.025-.03-.015-.027.012.037.023.054.044.12.058.178l.012.06c.002.015 0 .004 0-.027h2zm-1.5-2c-.52 0-.84.33-.965.48-.147.178-.246.376-.31.53-.122.292-.224.677-.224 1h2c0 .04-.004.028.012-.042a1.17 1.17 0 0 1 .056-.175c.026-.06.035-.062.007-.028-.015.02-.062.072-.146.124s-.237.12-.43.12V9zm-1.5 2v2h2v-2h-2zm-2 2c0 .317.107.705.23.99.065.153.163.348.307.524.115.14.437.485.965.485v-2a.82.82 0 0 1 .44.126c.083.053.128.106.142.123.025.03.015.027-.012-.037-.023-.054-.044-.12-.058-.178l-.012-.06c-.002-.015.001-.004.001.027h-2zm1.5 2c.52 0 .84-.33.965-.48.147-.178.246-.376.31-.53.122-.292.224-.677.224-1h-2c0-.04.004-.028-.012.042-.014.06-.034.122-.056.175-.026.06-.035.062-.007.028.015-.02.062-.072.146-.124s.237-.12.43-.12v2zm1.5-2v-2h-2v2h2zm0-2c0-.317-.107-.705-.23-.99a2.16 2.16 0 0 0-.306-.524C10.38 9.344 10.06 9 9.53 9v2a.82.82 0 0 1-.44-.126c-.083-.053-.128-.106-.142-.123-.025-.03-.015-.027.012.037.023.054.044.12.058.178l.013.06c.002.015-.001.004-.001-.027h2zm-1.5-2c-.52 0-.84.33-.965.48-.147.178-.246.376-.31.53-.122.292-.224.677-.224 1h2c0 .04-.004.028.012-.042a1.17 1.17 0 0 1 .056-.175c.026-.06.035-.062.007-.028-.015.02-.062.072-.146.124s-.237.12-.43.12V9zm-1.5 2v2h2v-2h-2z" fill="#000" mask="url(#A)"/></g><defs><filter id="B" x="0" y="0" width="19.079" height="20" filterUnits="userSpaceOnUse" color-interpolation-filters="sRGB"><feFlood flood-opacity="0" result="A"/><feColorMatrix in="SourceAlpha" values="0 0 0 0 0 0 0 0 0 0 0 0 0 0 0 0 0 0 127 0"/><feOffset dy="1"/><feGaussianBlur stdDeviation="1"/><feColorMatrix values="0 0 0 0 0 0 0 0 0 0 0 0 0 0 0 0 0 0 1 0"/><feBlend in2="A"/><feBlend in="SourceGraphic"/></filter><path id="C" d="M8.03 16s-2.22-1.7-3-3-2.26-2.96-2-4 1.22-1.37 2-.588 1.307 2.472 1.827 2.212.13-2.733-.4-4.164S5.404 2 6.467 2 7.53 3 8.03 4.5s.1 3.5.5 3.5.54-.35.54-1c0-.177.035-.326.105-.45.19-.332.634-.48 1.356-.48.99 0 .5 1.93 1 1.93s.5.04.5-1 .464-.93 1.464-.93S14 8 14.53 8s0-1 .5-1 1 .158 1 2.5.28 2.46-.5 3.5l-1.5 2s0 1-.536 1-.813-1-1.464-1-1 1-1 1h-3zm6-2v-4h-1v4h1zm-3-1c0 .27.232 1 .5 1 .276 0 .5-.725.5-1v-2c0-.27-.232-1-.5-1-.276 0-.5.725-.5 1v2zm-2 0c0 .27.232 1 .5 1 .276 0 .5-.725.5-1v-2c0-.27-.232-1-.5-1-.276 0-.5.725-.5 1v2z"/></defs></svg>